<svg width="220" height="87" viewBox="0 0 220 87" fill="none" xmlns="http://www.w3.org/2000/svg">
<path d="M198.192 42.248L209.752 31.3281H216.713L204.832 42.4082L212.992 59.3281H206.232L200.312 46.7285L197.272 49.5283L195.832 59.3281H190.232L194.192 31.3281H199.792L198.192 42.248Z" fill="white"/>
<path fill-rule="evenodd" clip-rule="evenodd" d="M174.083 30.8477C176.323 30.8477 178.297 31.2345 180.003 32.0078C181.71 32.7545 183.109 33.8081 184.203 35.168C185.323 36.528 186.096 38.1278 186.523 39.9678C186.976 41.7811 187.056 43.7544 186.763 45.8877C186.47 47.9142 185.87 49.7808 184.963 51.4873C184.057 53.194 182.91 54.6744 181.523 55.9277C180.163 57.1543 178.616 58.1143 176.883 58.8076C175.15 59.4743 173.296 59.8076 171.323 59.8076C169.083 59.8076 167.109 59.4208 165.403 58.6475C163.723 57.8741 162.323 56.8072 161.203 55.4473C160.109 54.0874 159.337 52.5007 158.883 50.6875C158.457 48.8475 158.39 46.8742 158.683 44.7676C159.083 42.0476 160.003 39.6474 161.443 37.5674C162.883 35.4608 164.697 33.8208 166.883 32.6475C169.07 31.4477 171.469 30.8477 174.083 30.8477ZM173.883 35.8877C172.283 35.8877 170.803 36.2745 169.443 37.0479C168.083 37.8212 166.95 38.9148 166.043 40.3281C165.137 41.7148 164.536 43.3815 164.243 45.3281C163.976 47.1679 164.083 48.8082 164.563 50.248C165.043 51.6612 165.87 52.7675 167.043 53.5674C168.243 54.3673 169.736 54.7676 171.523 54.7676C173.123 54.7676 174.59 54.3808 175.923 53.6074C177.283 52.8342 178.416 51.7411 179.323 50.3281C180.256 48.9149 180.856 47.2345 181.123 45.2881C181.389 43.4214 181.283 41.7939 180.803 40.4072C180.323 38.994 179.496 37.8878 178.323 37.0879C177.149 36.288 175.67 35.8877 173.883 35.8877Z" fill="white"/>
<path d="M157.911 35.8477H149.791L146.472 59.3281H140.871L144.191 35.8477H136.031L136.671 31.3281H158.512L157.911 35.8477Z" fill="white"/>
<path fill-rule="evenodd" clip-rule="evenodd" d="M119.869 30.8477C122.109 30.8477 124.082 31.2345 125.789 32.0078C127.495 32.7545 128.895 33.808 129.989 35.168C131.109 36.5279 131.881 38.1279 132.308 39.9678C132.761 41.7811 132.842 43.7544 132.548 45.8877C132.255 47.9142 131.655 49.7807 130.749 51.4873C129.842 53.194 128.695 54.6744 127.308 55.9277C125.948 57.1543 124.402 58.1143 122.668 58.8076C120.935 59.4742 119.082 59.8076 117.109 59.8076C114.869 59.8076 112.896 59.4207 111.189 58.6475C109.509 57.8741 108.109 56.8073 106.989 55.4473C105.895 54.0873 105.122 52.5008 104.668 50.6875C104.242 48.8475 104.175 46.8742 104.468 44.7676C104.868 42.0476 105.789 39.6474 107.229 37.5674C108.669 35.4609 110.482 33.8207 112.668 32.6475C114.855 31.4475 117.255 30.8477 119.869 30.8477ZM119.668 35.8877C118.069 35.8877 116.589 36.2746 115.229 37.0479C113.869 37.8212 112.735 38.9148 111.829 40.3281C110.922 41.7147 110.322 43.3816 110.029 45.3281C109.762 47.168 109.868 48.8082 110.348 50.248C110.828 51.6612 111.655 52.7674 112.829 53.5674C114.028 54.3673 115.522 54.7675 117.308 54.7676C118.908 54.7676 120.375 54.3808 121.708 53.6074C123.068 52.8341 124.202 51.7414 125.109 50.3281C126.042 48.9149 126.642 47.2346 126.909 45.2881C127.175 43.4214 127.068 41.7939 126.588 40.4072C126.108 38.9942 125.282 37.8878 124.109 37.0879C122.936 36.2879 121.455 35.8877 119.668 35.8877Z" fill="white"/>
<path d="M92.2227 31.3281C94.4891 31.3282 96.3156 31.7284 97.7021 32.5283C99.0888 33.3283 100.062 34.4086 100.622 35.7686C101.209 37.1018 101.369 38.6216 101.103 40.3281C100.889 41.7948 100.342 43.1682 99.4619 44.4482C98.6086 45.7281 97.3955 46.7684 95.8223 47.5684C94.2757 48.3417 92.3423 48.7285 90.0225 48.7285H84.8223L83.3418 59.3281H77.7422L81.7021 31.3281H92.2227ZM85.4619 44.208H90.0625C91.7423 44.208 93.0224 43.8078 93.9023 43.0078C94.8088 42.1813 95.3553 41.0882 95.542 39.7285C95.702 38.5018 95.4756 37.5544 94.8623 36.8877C94.2756 36.2212 93.1551 35.8877 91.502 35.8877H86.6621L85.4619 44.208Z" fill="white"/>
<path d="M200.952 30.3281L199.602 39.5439L209.357 30.3281H219.254L206.055 42.6377L214.588 60.3281H205.6L205.33 59.7529L199.989 48.3867L198.213 50.0225L196.699 60.3281H189.084L193.326 30.3281H200.952ZM194.195 31.3281L190.235 59.3281H195.835L197.275 49.5283L200.315 46.7285L206.235 59.3281H212.995L204.835 42.4082L216.715 31.3281H209.755L198.195 42.248L199.795 31.3281H194.195Z" fill="white"/>
<path d="M174.083 29.8477C176.432 29.8477 178.547 30.2541 180.403 31.0928C182.243 31.8978 183.774 33.0429 184.974 34.5322C186.199 36.0199 187.039 37.7629 187.498 39.7422H187.497C187.982 41.692 188.061 43.79 187.753 46.0244L187.752 46.0312C187.444 48.1649 186.81 50.1428 185.846 51.957C184.887 53.7626 183.67 55.3361 182.194 56.6699L182.193 56.6709C180.744 57.9782 179.095 59 177.254 59.7363L177.242 59.7412C175.387 60.4546 173.411 60.8086 171.323 60.8086C169.115 60.8086 167.115 60.4506 165.342 59.7119L164.991 59.5586L164.985 59.5566C163.288 58.7756 161.843 57.7097 160.664 56.3584L160.431 56.084L160.423 56.0752L161.203 55.4482C162.323 56.8082 163.723 57.8751 165.403 58.6484C167.003 59.3734 168.837 59.7584 170.906 59.8037L171.323 59.8086C173.173 59.8086 174.917 59.5155 176.556 58.9297L176.883 58.8086C178.617 58.1153 180.163 57.1544 181.523 55.9277C182.823 54.7528 183.912 53.379 184.791 51.8057L184.963 51.4883C185.813 49.8884 186.394 48.1477 186.705 46.2666L186.763 45.8877C187.056 43.7545 186.976 41.781 186.523 39.9678C186.096 38.1279 185.323 36.5279 184.203 35.168C183.178 33.8932 181.884 32.8872 180.32 32.1514L180.003 32.0078C178.403 31.2828 176.568 30.8978 174.5 30.8525L174.083 30.8477C171.469 30.8477 169.07 31.4486 166.883 32.6484L166.477 32.874C164.471 34.0287 162.793 35.5935 161.443 37.5684L161.179 37.9619C159.89 39.9494 159.058 42.2185 158.683 44.7686C158.39 46.8751 158.457 48.8486 158.883 50.6885C159.337 52.5016 160.109 54.0884 161.203 55.4482L160.423 56.0742C159.308 54.6862 158.505 53.0877 158.008 51.292L157.913 50.9307L157.911 50.9219L157.909 50.9141C157.451 48.9407 157.385 46.8426 157.693 44.6299L157.694 44.623C158.114 41.7643 159.086 39.2162 160.621 36.999C162.148 34.7661 164.08 33.0171 166.411 31.7666C168.749 30.4851 171.313 29.8477 174.083 29.8477ZM174.214 35.8926C175.853 35.9394 177.223 36.338 178.323 37.0879C179.496 37.8879 180.323 38.9949 180.803 40.4082C181.283 41.7948 181.389 43.4215 181.123 45.2881C180.856 47.2347 180.256 48.9148 179.323 50.3281C178.416 51.7414 177.283 52.8351 175.923 53.6084C174.59 54.3817 173.123 54.7686 171.523 54.7686V53.7686C172.954 53.7686 174.246 53.4246 175.421 52.7432L175.428 52.7393C176.637 52.0518 177.655 51.0753 178.481 49.7881L178.489 49.7773C179.327 48.5075 179.883 46.9743 180.132 45.1523L180.133 45.1465C180.368 43.5033 180.286 42.1181 179.932 40.9629L179.858 40.7354L179.856 40.7295C179.442 39.5104 178.744 38.5853 177.759 37.9141C176.79 37.2536 175.521 36.8877 173.883 36.8877C172.453 36.8877 171.143 37.2313 169.937 37.917C168.728 38.6045 167.71 39.5809 166.884 40.8682L166.88 40.875C166.067 42.1194 165.508 43.6426 165.232 45.4707C164.983 47.1881 165.09 48.6654 165.509 49.9268H165.51C165.923 51.1424 166.618 52.0655 167.598 52.7363C168.598 53.403 169.887 53.7685 171.523 53.7686V54.7686L171.192 54.7637C169.66 54.72 168.353 54.3702 167.271 53.7139L167.043 53.5684C165.87 52.7684 165.043 51.6614 164.563 50.248C164.113 48.8981 163.992 47.3724 164.198 45.6709L164.243 45.3281C164.518 43.5033 165.063 41.9245 165.876 40.5918L166.043 40.3281C166.95 38.9149 168.083 37.8211 169.443 37.0479C170.803 36.2745 172.283 35.8877 173.883 35.8877L174.214 35.8926Z" fill="white"/>
<path d="M159.656 30.3281L158.79 36.8477H150.663L147.343 60.3281H139.723L143.043 36.8477H134.883L135.806 30.3281H159.656ZM136.675 31.3281L136.034 35.8477H144.194L140.874 59.3281H146.475L149.795 35.8477H157.914L158.515 31.3281H136.675Z" fill="white"/>
<path d="M119.868 29.8477C122.218 29.8477 124.332 30.2541 126.189 31.0928C128.029 31.8978 129.56 33.0428 130.76 34.5322C131.982 36.0157 132.819 37.7532 133.278 39.7256C133.767 41.6801 133.847 43.7837 133.539 46.0244L133.538 46.0312C133.229 48.1649 132.596 50.1428 131.632 51.957C130.673 53.7627 129.454 55.3361 127.979 56.6699V56.6709C126.529 57.9781 124.881 59 123.04 59.7363L123.027 59.7412C121.173 60.4546 119.197 60.8086 117.109 60.8086C114.754 60.8086 112.635 60.401 110.776 59.5586L110.771 59.5566C109.074 58.7756 107.629 57.7097 106.449 56.3584L106.217 56.084L106.209 56.0752L106.988 55.4482C108.108 56.8082 109.509 57.8751 111.189 58.6484C112.789 59.3734 114.623 59.7584 116.692 59.8037L117.109 59.8086C118.958 59.8086 120.703 59.5155 122.342 58.9297L122.668 58.8086C124.293 58.1587 125.754 57.2739 127.051 56.1553L127.309 55.9277C128.609 54.7529 129.697 53.3788 130.575 51.8057L130.748 51.4883C131.655 49.7816 132.256 47.9144 132.549 45.8877C132.842 43.7545 132.762 41.781 132.309 39.9678C131.882 38.1279 131.108 36.5279 129.988 35.168C128.895 33.8081 127.495 32.7544 125.788 32.0078C124.188 31.2829 122.354 30.8978 120.285 30.8525L119.868 30.8477C117.255 30.8477 114.855 31.4485 112.668 32.6484L112.263 32.874C110.257 34.0287 108.579 35.5934 107.229 37.5684L106.965 37.9619C105.676 39.9494 104.844 42.2185 104.469 44.7686C104.176 46.8751 104.241 48.8486 104.668 50.6885C105.121 52.5017 105.895 54.0883 106.988 55.4482L106.209 56.0742C105.093 54.6862 104.29 53.0877 103.794 51.292L103.698 50.9307L103.696 50.9219L103.694 50.9141C103.237 48.9407 103.17 46.8426 103.478 44.6299L103.48 44.623C103.9 41.7643 104.871 39.2162 106.406 36.999C107.934 34.7662 109.865 33.017 112.195 31.7666C114.534 30.4848 117.098 29.8477 119.868 29.8477ZM119.668 35.8877C121.455 35.8877 122.935 36.288 124.109 37.0879C125.282 37.8879 126.109 38.9949 126.589 40.4082C127.069 41.7948 127.175 43.4215 126.908 45.2881C126.642 47.2348 126.042 48.9148 125.109 50.3281C124.202 51.7415 123.068 52.8351 121.708 53.6084C120.375 54.3815 118.909 54.7685 117.309 54.7686V53.7686C118.739 53.7685 120.032 53.4246 121.207 52.7432L121.214 52.7393C122.423 52.0518 123.441 51.0754 124.267 49.7881L124.274 49.7773H124.275C125.113 48.5075 125.669 46.9743 125.918 45.1523L125.919 45.1465C126.154 43.5033 126.071 42.118 125.718 40.9629L125.644 40.7354L125.642 40.7295C125.228 39.5104 124.53 38.5854 123.545 37.9141C122.576 37.2535 121.306 36.8877 119.668 36.8877C118.238 36.8878 116.928 37.2315 115.723 37.917C114.514 38.6045 113.496 39.5809 112.67 40.8682L112.665 40.875C111.852 42.1194 111.294 43.6426 111.018 45.4707C110.769 47.1881 110.876 48.6654 111.295 49.9268C111.709 51.1443 112.405 52.0682 113.388 52.7393C114.388 53.4042 115.675 53.7686 117.309 53.7686V54.7686L116.977 54.7637C115.446 54.7199 114.139 54.3701 113.057 53.7139L112.828 53.5684C111.655 52.7684 110.829 51.6613 110.349 50.248C109.869 48.8081 109.762 47.1681 110.028 45.3281C110.322 43.3815 110.922 41.7148 111.828 40.3281C112.678 39.0031 113.728 37.9598 114.977 37.1973L115.229 37.0479C116.588 36.2747 118.068 35.8878 119.668 35.8877Z" fill="white"/>
<path d="M92.2236 30.3281V31.3281H81.7031L77.7432 59.3281H83.3438L84.8232 48.7285H90.0234L90.4541 48.7236C92.4418 48.6813 94.1337 48.3434 95.5293 47.709L95.8232 47.5684C97.2981 46.8184 98.4567 45.8573 99.2988 44.6855L99.4639 44.4482C100.344 43.1683 100.89 41.7948 101.104 40.3281C101.37 38.6215 101.21 37.1018 100.623 35.7686C100.098 34.4937 99.2104 33.4644 97.959 32.6816L97.7031 32.5283C96.4032 31.7784 94.7168 31.3799 92.6436 31.333L92.2236 31.3281V30.3281C94.4484 30.3281 96.3608 30.6949 97.9004 31.4961L98.2031 31.6621C99.7558 32.5579 100.885 33.7932 101.538 35.3652C102.215 36.9038 102.382 38.6226 102.092 40.4824L102.091 40.4814C101.854 42.0989 101.251 43.608 100.295 45.002C99.3331 46.4447 97.9799 47.5937 96.2764 48.46L96.2705 48.4629C94.5459 49.3251 92.448 49.7285 90.0234 49.7285H85.6934L84.2139 60.3281H76.5918L80.835 30.3281H92.2236ZM91.5039 35.8877C93.1567 35.8878 94.2766 36.2213 94.8633 36.8877C95.4766 37.5544 95.7039 38.5018 95.5439 39.7285C95.3572 41.0883 94.8099 42.1812 93.9033 43.0078C93.0233 43.8078 91.7435 44.208 90.0635 44.208V43.208C91.5968 43.208 92.5983 42.843 93.2305 42.2686C93.9421 41.6194 94.3924 40.7514 94.5518 39.5967C94.6707 38.6822 94.5223 38.1012 94.251 37.7178L94.1279 37.5654L94.1201 37.5566L94.1123 37.5488C93.8441 37.2442 93.1856 36.9296 91.792 36.8916L91.5039 36.8877H87.5293L86.6182 43.208H90.0635V44.208H85.4639L86.6631 35.8877H91.5039Z" fill="white"/>
<path d="M25.6367 53.1795C25.6367 53.1795 68.4215 50.1843 59.7138 6.96094C60.1164 7.30318 81.164 25.9883 63.3127 51.318C48.9982 69.4648 28.8616 70.8163 28.8616 70.8163L25.6367 53.1795Z" fill="url(#paint0_linear_244_1191)"/>
<path d="M55.5193 37.1511C55.5193 37.1511 64.021 26.6092 59.7143 6.96006C48.7198 -0.859451 27.0528 -7.22217 11.248 17.741C25.6566 11.3655 46.5681 3.71495 55.5225 37.1511H55.5193Z" fill="url(#paint1_linear_244_1191)"/>
<path fill-rule="evenodd" clip-rule="evenodd" d="M36.0614 12.5897C27.7829 10.8077 18.6317 14.4767 11.2553 17.7345C9.25021 21.3526 7.38778 25.8315 5.62178 31.6523C-2.94047 59.8542 0.824238 86.3634 0.824238 86.3634H22.8483C22.8483 86.3634 13.6102 62.3119 19.6191 33.7498C22.6124 19.5134 29.7019 14.276 36.0614 12.5897Z" fill="url(#paint2_linear_244_1191)"/>
<defs>
<linearGradient id="paint0_linear_244_1191" x1="-15.2871" y1="122.845" x2="97.8646" y2="-19.194" gradientUnits="userSpaceOnUse">
<stop stop-color="#0000FF"/>
<stop offset="1" stop-color="#00FFFF"/>
</linearGradient>
<linearGradient id="paint1_linear_244_1191" x1="75.7773" y1="50.8041" x2="15.1881" y2="-7.01496" gradientUnits="userSpaceOnUse">
<stop stop-color="#0000FF"/>
<stop offset="1" stop-color="#00FFFF"/>
</linearGradient>
<linearGradient id="paint2_linear_244_1191" x1="13.113" y1="23.8902" x2="27.8275" y2="94.5335" gradientUnits="userSpaceOnUse">
<stop offset="0.2" stop-color="#1885FC"/>
<stop offset="0.3" stop-color="#1498FC"/>
<stop offset="0.5" stop-color="#0BC4FD"/>
<stop offset="0.7" stop-color="#05E4FE"/>
<stop offset="0.9" stop-color="#01F7FE"/>
<stop offset="1" stop-color="#00FFFF"/>
</linearGradient>
</defs>
</svg>
